<?xml version="1.0" encoding="utf-8"?>
<!-- Generator: Adobe Illustrator 27.0.0, SVG Export Plug-In . SVG Version: 6.00 Build 0)  -->
<svg version="1.1" id="Capa_1" xmlns="http://www.w3.org/2000/svg" xmlns:xlink="http://www.w3.org/1999/xlink" x="0px" y="0px"
	 viewBox="0 0 1080 1080" style="enable-background:new 0 0 1080 1080;" xml:space="preserve">
<style type="text/css">
	.st0{fill:#DBA55E;}
</style>
<path class="st0" d="M974.31,767.69c-1.88,3.19-4.03,6.21-6.15,9.26c-2.61,3.74-5.26,7.45-7.98,11.11
	c-2.7,3.65-5.45,7.25-8.25,10.82c-2.79,3.55-5.62,7.06-8.51,10.53c-2.87,3.45-5.8,6.87-8.77,10.24c-2.96,3.36-5.96,6.67-9.02,9.94
	c-3.04,3.26-6.13,6.47-9.26,9.64c-3.12,3.16-6.28,6.28-9.49,9.35c-3.2,3.06-6.44,6.08-9.72,9.05c-3.27,2.96-6.59,5.88-9.94,8.74
	c-3.34,2.86-6.73,5.67-10.15,8.44c-3.41,2.76-6.87,5.47-10.35,8.14c-3.48,2.66-7,5.27-10.55,7.83c-3.55,2.56-7.13,5.06-10.74,7.52
	c-3.61,2.45-7.25,4.86-10.92,7.21c-3.67,2.35-7.37,4.65-11.09,6.9c-3.72,2.25-7.48,4.44-11.26,6.59c-3.78,2.14-7.59,4.24-11.42,6.28
	c-3.83,2.04-7.69,4.03-11.57,5.96c-3.88,1.93-7.79,3.81-11.72,5.64c-3.93,1.83-7.88,3.6-11.85,5.32c-3.97,1.72-7.97,3.39-11.98,5
	c-4.01,1.61-8.05,3.17-12.1,4.68c-4.05,1.51-8.13,2.96-12.22,4.36c-4.09,1.4-8.2,2.74-12.33,4.03c-4.12,1.29-8.27,2.52-12.42,3.71
	c-4.16,1.18-8.33,2.31-12.52,3.38c-4.19,1.07-8.39,2.09-12.6,3.05c-4.21,0.96-8.44,1.87-12.68,2.71c-4.24,0.85-8.49,1.64-12.75,2.38
	c-4.26,0.74-8.53,1.42-12.81,2.05c-4.28,0.63-8.57,1.2-12.86,1.71c-4.3,0.51-8.6,0.97-12.91,1.37c-4.31,0.4-8.63,0.74-12.95,1.03
	c-4.32,0.29-8.65,0.52-12.98,0.69c-4.33,0.17-8.67,0.29-13.01,0.35c-4.34,0.06-8.68,0.06-13.02,0c-4.35-0.06-8.69-0.17-13.03-0.34
	c-4.35-0.17-8.69-0.4-13.03-0.69c-4.35-0.29-8.69-0.64-13.03-1.04c-4.34-0.41-8.68-0.87-13.02-1.39c-4.34-0.52-8.67-1.1-13-1.74
	c-4.33-0.64-8.65-1.34-12.97-2.1c-4.32-0.76-8.63-1.58-12.93-2.45c-4.31-0.88-8.61-1.82-12.89-2.81c-4.29-1-8.57-2.06-12.84-3.17
	c-4.28-1.12-8.54-2.3-12.78-3.53c-4.26-1.24-8.5-2.54-12.72-3.89c-4.23-1.36-8.45-2.78-12.64-4.26c-4.21-1.48-8.4-3.02-12.56-4.62
	c-4.18-1.61-8.34-3.27-12.48-4.99c-4.15-1.73-8.28-3.52-12.38-5.36c-4.12-1.85-8.21-3.76-12.28-5.73c-4.08-1.98-8.14-4.01-12.17-6.1
	c-4.05-2.1-8.06-4.26-12.05-6.47c-3.14-1.75-6.27-3.53-9.37-5.35c-45.21-25.98-86.32-59.6-120.01-99.48
	c-6.61-7.42-15.64-19.43-21.71-27.44c0,0-9.93-14.43-9.93-14.43c-4.57-6.59-9.7-15.45-13.99-22.26
	c-45.79-78.66-67.5-171.2-60.51-262.05c8.4-118.51,64.91-234.15,156.97-310.11c137.6-115.22,342-127.54,492.82-30.37
	c182.87,113.13,237.82,361.6,121.63,542.35C762.51,866.32,527.35,913.55,360.64,795.45c-141.86-97.77-182.71-298.53-88.46-442.95
	c22.48-35.47,52.51-66.34,87.75-89.23c90.77-59.96,213.67-62.85,305.82-4.72c58.23,35.73,100.46,93.36,114.61,160.36
	c2.49,11.79,4.02,23.72,4.85,35.63c2.95,46.88-8.27,94.59-32.54,134.8c-5.91,9.87-12.7,19.12-19.86,27.92
	c-3.7,4.24-14.75,16.68-16.87,15.21c-2.12-1.47,5.73-16.17,8.42-21.1c4.13-6.84,9.04-16.87,14.08-29.16
	c38.84-94.74,5.18-207.93-82.4-261.22c-85.02-53.01-198.4-42.53-269.8,28.42c-73.19,72.03-88.6,190.96-37.56,279.81
	c17.52,31.55,42.68,58.53,72.54,78.81C529,783.51,687.07,762.85,771.5,661.29c90.01-104.23,93.55-265.21,9.08-374.16
	c-35.72-47.3-85.97-82.67-140.85-104.48c-153.99-61.23-335.65-0.82-423.71,139.88c-71.52,110.18-82.85,251.09-32.17,372.06
	c1.12,2.76,6.97,15.43,7.99,17.9c2.54,5.03,6.32,12.45,8.86,17.5c2.8,4.91,6.93,12.16,9.71,17.06c1.48,2.48,8.91,13.9,10.55,16.58
	c29.45,43.52,67.4,81.67,111.17,110.85c143.11,98.66,338.05,104.78,488.54,17.29c8.42-4.37,19.66-12.06,27.76-17.06
	c45.31-30.49,84.89-68.77,117.53-112.86c4.85-5.94,14.81-17.77,16.85-16.44c0.68,0.44,0.33,1.81,0.2,2.43
	c-0.34,1.63-0.94,3.22-1.54,4.77c-1.57,4.02-3.45,7.93-5.37,11.79C975.55,765.51,974.95,766.61,974.31,767.69z"/>
</svg>
